<svg width="106" height="35" viewBox="0 0 106 35" fill="none" xmlns="http://www.w3.org/2000/svg">
<g clip-path="url(#clip0_11810_12745)">
<path d="M106 24.6008C105.421 24.7296 104.842 24.8638 104.262 24.8705C102.031 24.8961 99.7995 24.8812 97.5682 24.8807C96.8867 24.8806 96.6945 24.6955 96.6944 24.0351C96.6938 19.7237 96.6939 15.4122 96.6943 11.1007C96.6944 10.4692 96.9184 10.2427 97.5672 10.2419C100.082 10.2388 102.597 10.2317 105.112 10.2535C105.384 10.2559 105.654 10.4367 105.962 10.5012C106 11.1132 106 11.7587 105.96 12.4213C105.654 12.5002 105.389 12.6133 105.123 12.6157C103.327 12.6315 101.53 12.6231 99.7331 12.6255C99.5911 12.6257 99.4491 12.6475 99.3264 12.6577C99.3264 13.875 99.3264 15.0425 99.3264 16.2556C99.4371 16.2556 99.5264 16.2556 99.6157 16.2556C101.148 16.2556 102.68 16.2619 104.212 16.252C104.697 16.2488 104.993 16.4085 104.981 16.9445C104.972 17.3037 104.966 17.6638 104.982 18.0224C105.003 18.4876 104.786 18.6507 104.335 18.6446C103.125 18.6281 101.914 18.6389 100.704 18.6389C100.241 18.6389 99.7771 18.6389 99.3442 18.6389C99.3442 19.9749 99.3442 21.2318 99.3442 22.4976C101.01 22.4976 102.636 22.4781 104.262 22.508C104.842 22.5187 105.421 22.6489 106 22.7246C106 23.3323 106 23.94 106 24.6008Z" fill="#535E6D"/>
<path d="M0 15.174C0.0689039 15.1088 0.137808 15.0967 0.264155 15.0508C1.03623 15.7134 1.74584 16.4151 2.46926 17.1024C2.63709 17.2618 2.85201 17.3717 3.04527 17.5044C3.18996 19.0811 3.42207 20.6395 4.10694 22.0887C4.29392 22.4843 4.52973 22.8588 4.7648 23.2293C5.00691 23.6108 5.04413 23.972 4.71451 24.3118C4.30689 24.7321 3.90106 25.1559 3.46825 25.5494C3.0396 25.9391 2.55695 25.8437 2.26783 25.3381C1.4208 23.8567 0.655384 22.3401 0.267858 20.6615C0.219831 20.4534 0.142994 20.252 0.0397537 20.081C3.38228e-09 18.4853 0 16.8563 0 15.174Z" fill="#535E6D"/>
<path d="M16.2905 4C16.381 4.07347 16.41 4.20469 16.4581 4.2121C18.579 4.53888 20.4043 5.53209 22.1416 6.72293C22.2939 6.82733 22.4147 6.97652 22.5599 7.09253C23.3603 7.73157 23.3764 8.03243 22.644 8.7677C22.1242 9.2895 21.6051 9.81208 21.0106 10.3435C20.7299 10.1667 20.5228 9.98228 20.3189 9.79425C19.7451 9.26487 19.1726 8.73401 18.5996 8.20374C18.5996 8.20374 18.5485 8.19786 18.5234 8.1495C18.3915 7.93202 18.3099 7.73838 18.1735 7.59796C17.5297 6.9351 16.8523 6.30403 16.2234 5.62774C15.7432 5.11145 15.3176 4.54444 14.8677 4C15.3245 4 15.7812 4 16.2905 4Z" fill="#535E6D"/>
<path d="M11.4024 31.238C11.2927 31.1629 11.251 31.0485 11.1768 31.0205C11.008 30.9568 10.8231 30.9356 10.5951 30.85C9.67565 29.8719 8.81178 28.9352 7.93464 28.0112C7.14932 27.184 6.34939 26.3706 5.55591 25.551C6.09986 24.9926 6.64382 24.4341 7.22764 23.9004C7.29969 23.9917 7.31815 24.0709 7.36613 24.1228C7.92502 24.7279 8.48367 25.3333 9.05507 25.9264C9.15099 26.026 9.30714 26.0675 9.43546 26.1359C9.20915 26.383 8.98283 26.6301 8.69633 26.943C9.3534 27.2059 9.97164 27.4533 10.6338 27.7584C10.8257 28.0296 10.9475 28.2687 11.1261 28.4524C11.875 29.2225 12.6451 29.9719 13.3966 30.7396C13.5345 30.8804 13.6218 31.0706 13.7325 31.238C12.9735 31.238 12.2145 31.238 11.4024 31.238Z" fill="#535E6D"/>
<path d="M14.8146 4C15.3176 4.54444 15.7432 5.11145 16.2234 5.62774C16.8523 6.30403 17.5297 6.9351 18.1735 7.59796C18.3099 7.73838 18.3915 7.93202 18.4989 8.14148C17.0957 7.50808 15.624 7.10347 14.0097 7.0135C13.9056 6.85036 13.8783 6.71083 13.7953 6.62534C13.1728 5.98384 12.525 5.36617 11.9182 4.7104C11.7476 4.52605 11.6874 4.23961 11.5765 4C12.6382 4 13.6998 4 14.8146 4Z" fill="#535E6D"/>
<path d="M13.7857 31.238C13.6219 31.0706 13.5345 30.8804 13.3967 30.7396C12.6452 29.9719 11.875 29.2225 11.1262 28.4524C10.9475 28.2687 10.8257 28.0296 10.673 27.7773C11.7682 27.8465 12.8681 27.9544 14.0252 28.1094C14.3885 28.5281 14.6852 28.908 15.0026 29.2695C15.4795 29.8126 15.9709 30.3429 16.4562 30.8787C16.2073 30.9733 15.9583 31.068 15.7424 31.2004C15.1298 31.238 14.4843 31.238 13.7857 31.238Z" fill="#535E6D"/>
<path d="M11.5292 4C11.6873 4.23961 11.7475 4.52605 11.9181 4.7104C12.5249 5.36617 13.1727 5.98384 13.7953 6.62534C13.8782 6.71083 13.9055 6.85036 13.9592 7.00511C12.9718 7.16587 11.9839 7.28638 10.9436 7.37448C10.6037 7.02945 10.3099 6.72232 10.03 6.40296C9.59316 5.9046 9.1658 5.39796 8.73444 4.89482C9.42318 4.67204 10.1126 4.45136 10.7999 4.22407C10.8972 4.19189 10.9838 4.12751 11.0422 4.03902C11.1666 4 11.3243 4 11.5292 4Z" fill="#535E6D"/>
<path d="M64.8879 20.722C65.4297 21.7207 65.9648 22.6746 66.4575 23.6499C66.8343 24.3958 66.6811 24.9213 65.72 24.8941C63.6893 24.8367 64.2173 25.1201 63.3316 23.4047C62.7034 22.1878 62.1132 20.9511 61.507 19.7228C61.3769 19.4592 61.2289 19.29 60.873 19.3102C60.1605 19.3506 59.444 19.3222 58.6745 19.3222C58.6745 20.8059 58.6747 22.2554 58.6745 23.705C58.6743 24.7464 58.5355 24.8832 57.4806 24.8832C57.2726 24.8832 57.0644 24.8891 56.8566 24.8821C56.289 24.8629 56.0647 24.6289 56.0646 24.0558C56.0639 19.7255 56.0639 15.3953 56.0646 11.065C56.0647 10.4955 56.2918 10.2484 56.862 10.2459C58.6772 10.238 60.4965 10.1673 62.3069 10.261C64.9203 10.3963 66.899 12.27 66.8279 15.0075C66.7854 16.6434 65.937 17.8846 64.5307 18.7292C64.3609 18.8312 64.1793 18.9136 63.9527 19.0313C64.2696 19.6075 64.5663 20.147 64.8879 20.722ZM58.7576 17.1593C59.7388 17.1615 60.7201 17.1701 61.7013 17.1639C62.5131 17.1588 63.2285 16.9138 63.739 16.2436C64.2252 15.6054 64.4272 14.8813 64.1085 14.1278C63.8007 13.4003 63.2114 12.8306 62.4283 12.7667C61.197 12.6663 59.9516 12.74 58.6809 12.74C58.6809 14.2212 58.6809 15.6511 58.7576 17.1593Z" fill="#535E6D"/>
<path d="M43.8389 21.2421C44.2417 21.0393 44.5479 21.0969 44.8224 21.4041C45.0234 21.629 45.2479 21.8329 45.4601 22.0478C45.8401 22.4326 45.843 22.8581 45.437 23.1917C44.1648 24.2375 42.7579 24.9057 41.0651 25.0142C39.1342 25.138 37.4069 24.6985 35.8865 23.517C34.2622 22.255 33.2967 20.6167 33.0088 18.5478C32.8163 17.1643 33.0259 15.8859 33.5637 14.6224C34.4096 12.6351 35.845 11.2817 37.8699 10.5539C39.8328 9.84833 41.7894 9.91195 43.6831 10.7639C44.3233 11.0519 44.879 11.5351 45.4573 11.9513C45.8929 12.2649 45.8105 12.6541 45.5113 13.0068C45.2558 13.308 44.9972 13.6411 44.6659 13.8309C44.4532 13.9528 44.0318 13.9499 43.8327 13.8142C42.9952 13.2432 42.1459 12.7829 41.1176 12.6032C39.8231 12.3769 38.6902 12.7482 37.7174 13.4772C36.3875 14.4738 35.5979 15.8737 35.654 17.5698C35.7342 19.9918 37.1859 21.978 39.7436 22.4703C41.2409 22.7584 42.6256 22.261 43.8389 21.2421Z" fill="#535E6D"/>
<path d="M79.0941 22.0467C79.5037 21.7987 79.8617 21.5425 80.2367 21.3144C80.6323 21.0739 81.0241 20.9965 81.3774 21.417C81.559 21.6332 81.7739 21.8215 81.9737 22.0225C82.3808 22.4321 82.4245 22.7929 82.0063 23.1615C80.8102 24.2157 79.4449 24.8837 77.8172 25.0107C76.8316 25.0876 75.8713 25.037 74.9336 24.763C73.0969 24.2263 71.6539 23.1461 70.6023 21.537C69.8581 20.3983 69.5216 19.1167 69.4816 17.8017C69.4298 16.0985 69.9414 14.5126 70.9552 13.1142C72.1508 11.4649 73.8046 10.4702 75.7691 10.1793C78.0629 9.83969 80.2237 10.2962 82.0076 11.9437C82.4007 12.3068 82.3554 12.6547 82.0558 13.0078C81.8001 13.3091 81.5386 13.6336 81.2104 13.8349C81.0105 13.9575 80.584 13.9829 80.423 13.8514C79.5313 13.1234 78.5185 12.6589 77.4003 12.5356C76.2519 12.409 75.1565 12.7766 74.2529 13.4742C72.9302 14.4953 72.1488 15.9044 72.2038 17.5793C72.3031 20.602 74.6543 22.8244 77.7699 22.485C78.2071 22.4374 78.6237 22.2002 79.0941 22.0467Z" fill="#535E6D"/>
<path d="M88.1821 14.3279C88.1821 17.0662 88.1821 19.7476 88.1821 22.4714C88.3613 22.4813 88.5235 22.4979 88.6858 22.4981C90.1975 22.5001 91.7093 22.5089 93.2208 22.4934C93.6765 22.4887 93.9893 22.6528 94.0461 23.1054C94.0947 23.4933 94.0896 23.8964 94.0441 24.2853C93.9941 24.7132 93.7053 24.8886 93.2684 24.8869C90.9819 24.8776 88.6955 24.8855 86.409 24.8806C85.8105 24.8793 85.5738 24.6376 85.5734 24.0309C85.5704 19.7225 85.5705 15.4141 85.5732 11.1058C85.5736 10.4772 85.8137 10.2504 86.4539 10.2423C88.288 10.2192 88.2149 10.2383 88.1844 11.947C88.1706 12.7215 88.1821 13.4965 88.1821 14.3279Z" fill="#535E6D"/>
<path d="M49.0283 18.3002C49.0283 15.9017 49.0278 13.5598 49.0285 11.218C49.0288 10.4441 49.2347 10.2438 50.024 10.2424C51.6385 10.2396 51.6385 10.2396 51.6385 11.8457C51.6385 15.8495 51.6387 19.8533 51.6384 23.857C51.6384 24.6878 51.4485 24.8723 50.6362 24.8846C48.9488 24.91 49.0028 24.8201 49.0233 23.2861C49.0453 21.6433 49.0283 20 49.0283 18.3002Z" fill="#535E6D"/>
<path d="M24.1596 17.5116C24.0886 16.9323 24.0365 16.35 23.943 15.7743C23.726 14.4387 23.265 13.1927 22.5238 12.0544C22.1297 11.4492 22.1516 11.3029 22.6834 10.7694C23.0431 10.4084 23.4005 10.0449 23.765 9.6888C24.1722 9.29094 24.667 9.35983 24.953 9.83651C25.746 11.1587 26.4111 12.5319 26.8001 14.0362C27.2429 15.7486 27.3828 17.4709 27.1317 19.2239C27.1024 19.428 27.113 19.6378 27.0224 19.8679C26.8364 19.8559 26.7042 19.8501 26.6343 19.7813C26.0101 19.1661 25.4046 18.5318 24.7755 17.9218C24.6013 17.753 24.3665 17.6466 24.1596 17.5116Z" fill="#535E6D"/>
<path d="M18.5587 12.8286C18.1366 13.2189 17.7418 13.6472 17.2783 13.9797C17.107 14.1025 16.7445 14.0746 16.5198 13.9865C15.6935 13.6624 14.9331 13.1488 13.9977 13.161C13.6388 13.1656 13.2801 13.1814 12.8683 13.1458C12.526 12.7818 12.2281 12.4714 11.9494 12.1446C11.5157 11.636 11.0952 11.1162 10.6691 10.6012C12.5477 9.83068 14.4474 9.78185 16.4249 10.4819C16.643 10.7364 16.7906 10.9553 16.9677 11.1467C17.4918 11.7132 18.0275 12.2688 18.5587 12.8286Z" fill="#535E6D"/>
<path d="M9.51455 16.0297C9.17313 16.9342 9.08102 17.8435 9.37553 18.7883C9.51358 19.2312 9.47097 19.6561 9.04612 19.996C8.67932 20.2894 8.37355 20.6586 8.0368 20.9902C7.57086 21.4491 6.99546 21.3762 6.74558 20.7703C6.23806 19.5396 5.9318 18.2913 6.09317 16.9112C6.22502 15.7835 6.56497 14.7693 7.11295 13.8047C7.83418 14.5373 8.51036 15.2516 9.19916 15.9536C9.2634 16.0191 9.40752 16.0062 9.51455 16.0297Z" fill="#535E6D"/>
<path d="M3.05412 17.4588C2.8523 17.3744 2.63738 17.2645 2.46955 17.1051C1.74613 16.4179 1.03653 15.7161 0.284058 15.015C0.467178 14.187 0.599647 13.3257 0.9317 12.5499C1.33792 11.6008 1.91142 10.7232 2.48099 9.82031C3.25504 10.572 3.96068 11.3181 4.66632 12.0642C4.35969 12.7208 3.95967 13.3513 3.76776 14.0398C3.46024 15.1432 3.2906 16.285 3.05412 17.4588Z" fill="#535E6D"/>
<path d="M9.52364 15.99C9.40771 16.0078 9.2636 16.0207 9.19935 15.9552C8.51055 15.2532 7.83437 14.5389 7.15009 13.788C7.67023 12.6945 8.49472 11.9143 9.44896 11.2626C9.80981 11.0162 10.2073 10.8234 10.6286 10.6035C11.0952 11.116 11.5157 11.6358 11.9494 12.1444C12.228 12.4712 12.526 12.7815 12.8199 13.1371C12.0679 13.4783 11.2505 13.6866 10.7089 14.3582C10.2953 14.871 9.92312 15.4173 9.52364 15.99Z" fill="#535E6D"/>
<path d="M4.7025 12.0469C3.96075 11.316 3.25511 10.5699 2.51721 9.80271C3.15332 8.99306 3.80443 8.18882 4.49848 7.42353C4.77915 7.11405 5.1536 6.88961 5.52493 6.64844C6.28407 7.41085 7.00364 8.15131 7.72321 8.89177C7.26688 9.28541 6.77161 9.64282 6.36358 10.0814C5.78807 10.7 5.27714 11.3787 4.7025 12.0469Z" fill="#535E6D"/>
<path d="M14.9878 25.0098C14.0551 25.2914 13.1125 25.1833 12.1727 25.0681C11.925 25.0378 11.6847 24.9459 11.3945 24.8326C10.5489 23.906 9.7498 23.0291 8.95068 22.1521C9.00934 22.0809 9.0613 22.0027 9.12765 21.9396C10.0247 21.0865 10.0487 20.5796 11.4766 21.5329C11.7251 21.6988 12.0527 21.7464 12.3341 21.9075C12.4198 22.1293 12.4901 22.3151 12.6146 22.4515C13.3989 23.3104 14.1953 24.1583 14.9878 25.0098Z" fill="#535E6D"/>
<path d="M5.52081 25.5664C6.34957 26.371 7.14951 27.1844 7.93482 28.0116C8.81196 28.9356 9.67583 29.8722 10.5502 30.8412C9.8087 30.6599 9.04733 30.4817 8.31951 30.2128C6.88304 29.682 5.64847 28.7948 4.43083 27.8888C4.06265 27.6148 4.03137 27.0573 4.37027 26.699C4.73182 26.3168 5.11295 25.9531 5.52081 25.5664Z" fill="#535E6D"/>
<path d="M7.75992 8.87586C7.00322 8.15165 6.28365 7.41119 5.55933 6.63031C6.58531 6.02867 7.61603 5.46747 8.69034 4.90039C9.16529 5.39766 9.59265 5.9043 10.0295 6.40266C10.3094 6.72201 10.6032 7.02915 10.8959 7.38206C9.86633 7.90145 8.83169 8.38054 7.75992 8.87586Z" fill="#535E6D"/>
<path d="M18.5746 12.8175C18.0274 12.2685 17.4916 11.7129 16.9675 11.1465C16.7904 10.955 16.6429 10.7361 16.4665 10.4936C17.1639 9.73146 17.8766 9.00553 18.5944 8.24219C19.1725 8.73506 19.7449 9.26592 20.3188 9.7953C20.5226 9.98332 20.7297 10.1678 20.9758 10.359C20.2817 11.1096 19.5469 11.855 18.7467 12.6295C18.6555 12.696 18.6298 12.7332 18.6041 12.7705C18.6041 12.7705 18.5907 12.8068 18.5746 12.8175Z" fill="#535E6D"/>
<path d="M24.1647 17.5586C24.3669 17.646 24.6017 17.7523 24.7759 17.9211C25.405 18.5311 26.0105 19.1654 26.6347 19.7806C26.7046 19.8495 26.8367 19.8552 26.9824 19.8918C26.7464 20.9025 26.468 21.9114 26.1176 22.9232C25.2685 22.136 24.4914 21.346 23.7143 20.556C23.866 19.5727 24.0178 18.5895 24.1647 17.5586Z" fill="#535E6D"/>
<path d="M21.2043 17.9597C21.0212 18.7625 20.8381 19.5652 20.6062 20.4114C20.3756 20.3354 20.1717 20.2392 20.0155 20.0924C19.346 19.463 18.6904 18.8187 18.0298 18.1797C17.9652 17.5567 17.9197 16.931 17.8302 16.3115C17.7539 15.7835 17.8842 15.357 18.3457 15.0527C18.4846 15.2501 18.556 15.4488 18.6898 15.5872C19.3277 16.2466 19.9777 16.8947 20.6349 17.5349C20.803 17.6988 21.0134 17.8193 21.2043 17.9597Z" fill="#535E6D"/>
<path d="M15.0342 25.0039C14.1953 24.1586 13.3989 23.3107 12.6145 22.4518C12.4901 22.3154 12.4198 22.1296 12.354 21.9462C13.3117 22.0869 14.2323 22.1399 15.1693 21.7676C15.9371 22.5642 16.6569 23.3289 17.3767 24.0936C16.7287 24.6928 15.8986 24.8299 15.0342 25.0039Z" fill="#535E6D"/>
<path d="M8.91593 22.168C9.74977 23.0304 10.5489 23.9073 11.3486 24.8246C11.0432 24.6959 10.8056 24.766 10.5713 25.0272C10.2337 25.4037 9.86199 25.7495 9.47011 26.1227C9.30708 26.0686 9.15093 26.0271 9.05501 25.9275C8.48362 25.3344 7.92496 24.729 7.36608 24.1239C7.31809 24.072 7.29963 23.9927 7.26282 23.886C7.79919 23.2914 8.3402 22.7369 8.91593 22.168Z" fill="#535E6D"/>
<path d="M16.5023 30.8858C15.9708 30.3417 15.4793 29.8114 15.0024 29.2683C14.685 28.9068 14.3883 28.5269 14.0776 28.1166C14.9138 27.9307 15.7547 27.7836 16.6441 27.668C16.8352 27.8706 16.9687 28.0504 17.1221 28.2111C17.7307 28.8489 18.3457 29.4806 18.9583 30.1146C18.155 30.3745 17.3518 30.6343 16.5023 30.8858Z" fill="#535E6D"/>
<path d="M17.9905 18.2012C18.6905 18.8183 19.3461 19.4627 20.0157 20.0921C20.1719 20.2389 20.3757 20.3351 20.5979 20.4548C20.1799 21.1663 19.7216 21.8775 19.1928 22.5872C18.4187 21.8741 17.7149 21.1626 17.0111 20.4511C17.4145 19.7464 17.922 19.0855 17.9905 18.2012Z" fill="#535E6D"/>
<path d="M16.9759 20.4648C17.7147 21.162 18.4185 21.8735 19.1573 22.6012C18.6144 23.1072 18.0363 23.597 17.4176 24.0898C16.657 23.328 15.9373 22.5634 15.2128 21.7608C15.7857 21.3083 16.3633 20.8938 16.9759 20.4648Z" fill="#535E6D"/>
<path d="M23.6752 20.5762C24.4911 21.346 25.2682 22.136 26.0803 22.9423C25.7995 23.5908 25.4836 24.2231 25.0913 24.8667C24.856 24.755 24.6815 24.6478 24.5411 24.5066C23.9547 23.9169 23.3786 23.3171 22.7988 22.721C23.078 22.0128 23.3572 21.3046 23.6752 20.5762Z" fill="#535E6D"/>
<path d="M19.0001 30.1098C18.3457 29.482 17.7308 28.8502 17.1221 28.2125C16.9687 28.0517 16.8352 27.8719 16.6879 27.663C17.3755 27.323 18.0678 27.0208 18.8022 26.7422C18.8889 26.8456 18.9203 26.9373 18.9801 27.0033C19.6134 27.7026 20.2512 28.3979 20.8877 29.0943C20.2724 29.4308 19.6571 29.7673 19.0001 30.1098Z" fill="#535E6D"/>
<path d="M22.7622 22.7363C23.3785 23.3168 23.9546 23.9166 24.5409 24.5063C24.6813 24.6475 24.8559 24.7547 25.0547 24.8822C24.7406 25.4055 24.3865 25.9242 23.9574 26.4551C23.1453 25.7452 22.4081 25.0232 21.671 24.3011C22.0226 23.7848 22.3741 23.2684 22.7622 22.7363Z" fill="#535E6D"/>
<path d="M21.2126 17.9102C21.0133 17.8203 20.803 17.6997 20.6348 17.5359C19.9776 16.8957 19.3277 16.2476 18.6898 15.5882C18.556 15.4498 18.4846 15.251 18.3827 15.0377C18.6509 14.7117 18.9073 14.4136 19.1935 14.1476C19.7038 13.6734 20.2391 13.7668 20.5207 14.3898C21.0181 15.4903 21.2019 16.6597 21.2126 17.9102Z" fill="#535E6D"/>
<path d="M21.6354 24.3164C22.4082 25.0231 23.1453 25.7451 23.9226 26.4722C23.4912 26.9622 23.0198 27.4473 22.4967 27.9114C21.7306 27.1506 21.0162 26.4108 20.3018 25.671C20.7344 25.2246 21.167 24.7782 21.6354 24.3164Z" fill="#535E6D"/>
<path d="M20.266 25.6875C21.0163 26.412 21.7307 27.1519 22.4611 27.927C21.9718 28.3291 21.4665 28.6958 20.9245 29.0786C20.2513 28.3983 19.6135 27.703 18.9803 27.0037C18.9205 26.9377 18.8891 26.846 18.8398 26.7257C19.3002 26.3578 19.7652 26.0303 20.266 25.6875Z" fill="#535E6D"/>
<path d="M18.6367 12.7566C18.63 12.7325 18.6556 12.6952 18.7129 12.6445C18.7193 12.6686 18.6943 12.7061 18.6367 12.7566Z" fill="#535E6D"/>
</g>
<defs>
<clipPath id="clip0_11810_12745">
<rect width="106" height="35" fill="white"/>
</clipPath>
</defs>
</svg>
