<svg width="95" height="35" viewBox="0 0 95 35" fill="none" xmlns="http://www.w3.org/2000/svg">
<path fill-rule="evenodd" clip-rule="evenodd" d="M25 17.5C25 24.4035 19.3938 30 12.4782 30C5.91708 30 0.534564 24.9626 0 18.5507H16.551V16.4493H0C0.534564 10.0374 5.91708 5 12.4782 5C19.3938 5 25 10.5964 25 17.5ZM71.4232 27.7352C75.762 27.7352 78.6075 25.3969 78.6075 21.875C78.6075 18.6068 76.4664 17.0572 73.2262 16.5219L70.3524 16.0429C68.1548 15.6766 66.6896 14.7187 66.6896 12.6056C66.6896 10.4643 68.3239 8.8302 71.4232 8.8302C74.4377 8.8302 75.9874 10.3516 76.1565 12.5211H78.3258C78.1568 9.64727 75.9593 7.08337 71.4513 7.08337C66.9995 7.08337 64.5485 9.5909 64.5485 12.6901C64.5485 15.9865 66.7741 17.508 69.8171 18.0151L72.7191 18.4659C75.142 18.8885 76.4945 19.8746 76.4945 21.9596C76.4945 24.4108 74.494 25.9885 71.4513 25.9885C68.2957 25.9885 66.3234 24.4671 66.1543 21.875H64.0132C64.1822 25.256 66.7741 27.7352 71.4232 27.7352ZM39.4365 27.3409H31.5478V7.506H39.1547C42.5075 7.506 44.8461 9.47821 44.8461 12.6338C44.8461 14.9159 43.55 16.4373 41.4651 16.9445V17.029C43.9444 17.508 45.466 19.1985 45.466 21.8469C45.466 25.256 42.9583 27.3409 39.4365 27.3409ZM38.873 16.2119C41.2679 16.2119 42.7329 14.9159 42.7329 12.8873V12.6056C42.7329 10.577 41.2679 9.30917 38.873 9.30917H33.6607V16.2119H38.873ZM39.1265 25.5377C41.7469 25.5377 43.3527 24.1008 43.3527 21.9032V21.6215C43.3527 19.3393 41.7187 17.9588 39.0984 17.9588H33.6607V25.5377H39.1265ZM62.5298 27.3409H60.2759L58.5853 21.9596H50.6964L49.006 27.3409H46.8646L53.3731 7.506H55.937L62.5298 27.3409ZM54.7535 9.67544H54.5845L51.2598 20.1846H58.05L54.7535 9.67544ZM81.7813 27.3409V7.506H94.5162V9.33734H83.8945V16.1556H93.6711V17.9588H83.8945V25.5095H94.5162V27.3409H81.7813Z" fill="#535E6D"/>
</svg>
