<svg width="152" height="35" viewBox="0 0 152 35" fill="none" xmlns="http://www.w3.org/2000/svg">
<mask id="mask0_11810_12623" style="mask-type:luminance" maskUnits="userSpaceOnUse" x="0" y="7" width="152" height="21">
<path d="M152 7H0V27.3034H152V7Z" fill="white"/>
</mask>
<g mask="url(#mask0_11810_12623)">
<path d="M3.89479 16.3984C4.12611 16.3984 4.37572 16.3984 4.63931 16.406C4.90291 16.4093 5.16758 16.4277 5.42794 16.4494C5.68831 16.4744 5.93038 16.5113 6.1574 16.5623C6.38441 16.6133 6.57592 16.686 6.7373 16.788C7.08912 16.9952 7.38607 17.2871 7.63245 17.6549C7.87775 18.0228 7.99933 18.4752 7.99933 19.0145C7.99933 19.5831 7.85946 20.0713 7.58511 20.4869C7.30968 20.8981 6.91805 21.2052 6.40378 21.4049V21.4342C7.06437 21.573 7.57004 21.8714 7.92186 22.3304C8.27368 22.7894 8.45012 23.3471 8.45012 24.0025C8.45012 24.392 8.38019 24.7718 8.2414 25.1396C8.10153 25.5074 7.89281 25.8351 7.61738 26.1194C7.34195 26.4037 7.0009 26.6337 6.59421 26.8084C6.18752 26.9831 5.72166 27.071 5.18909 27.071H6.10352e-05V16.3984H3.89479ZM4.28749 20.986C5.09764 20.986 5.68508 20.8439 6.0412 20.5596C6.39732 20.2753 6.57699 19.8489 6.57699 19.2803C6.57699 18.9016 6.51782 18.6022 6.39732 18.3841C6.27682 18.166 6.11113 17.9945 5.90241 17.8774C5.69369 17.7613 5.44731 17.681 5.17295 17.6441C4.89753 17.6072 4.60488 17.5931 4.29287 17.5931H1.4267V20.986H4.28749ZM5.01049 25.872C5.64097 25.872 6.13695 25.7049 6.492 25.3653C6.84812 25.0268 7.02779 24.5602 7.02779 23.9623C7.02779 23.6129 6.96216 23.3243 6.83306 23.0954C6.70072 22.8653 6.52858 22.6841 6.31555 22.5485C6.0993 22.414 5.85292 22.3185 5.57103 22.2642C5.28915 22.21 4.99866 22.1807 4.69849 22.1807H1.4267V25.872H5.01049Z" fill="#535E6D"/>
<path d="M16.9863 16.4453V25.9156H22.6713V27.1113H15.5596V16.4453H16.9863Z" fill="#535E6D"/>
<path d="M71.4339 16.3984H69.5812L64.5051 21.7184V16.3984H63.0785V27.0677H64.5051V23.333L71.4339 16.3984Z" fill="#535E6D"/>
<path d="M66.3719 21.1094C65.9609 21.3242 65.5531 21.5499 65.154 21.7832L69.8707 27.0956H71.675L66.3719 21.1126V21.1094Z" fill="#535E6D"/>
<path d="M77.2212 17.5922V16.3965H85.8079V17.5922H82.2273V27.0625H80.7963V17.5922H77.2169H77.2201H77.2212Z" fill="#535E6D"/>
<path d="M92.3622 19.633C92.5935 18.9624 92.9378 18.3645 93.4037 17.847C93.8652 17.3294 94.4419 16.9138 95.1272 16.6078C95.8169 16.2986 96.6163 16.1445 97.5297 16.1445C98.4431 16.1445 99.2425 16.2975 99.9322 16.6078C100.618 16.9171 101.194 17.3294 101.656 17.847C102.117 18.3645 102.466 18.9581 102.697 19.633C102.929 20.3035 103.042 21.0066 103.042 21.7315C103.042 22.4563 102.924 23.1594 102.697 23.8299C102.466 24.5038 102.118 25.0984 101.656 25.6159C101.194 26.1335 100.618 26.5447 99.9322 26.8475C99.2425 27.1502 98.4431 27.3032 97.5297 27.3032C96.6163 27.3032 95.8126 27.1502 95.1272 26.8475C94.4376 26.5447 93.8652 26.1335 93.4037 25.6159C92.9421 25.0984 92.5935 24.5048 92.3622 23.8299C92.1309 23.1594 92.0136 22.4595 92.0136 21.7315C92.0136 21.0034 92.1309 20.3035 92.3622 19.633ZM93.7738 23.3243C93.9244 23.8451 94.1589 24.3193 94.4817 24.7349C94.8045 25.1537 95.2187 25.489 95.7244 25.744C96.2311 25.999 96.8325 26.127 97.5297 26.127C98.2269 26.127 98.8315 25.999 99.334 25.744C99.8397 25.489 100.255 25.1537 100.577 24.7349C100.899 24.316 101.134 23.8462 101.285 23.3243C101.434 22.8035 101.512 22.2707 101.512 21.7315C101.512 21.1922 101.434 20.6638 101.285 20.1386C101.134 19.6178 100.899 19.1436 100.577 18.728C100.254 18.3092 99.8397 17.9739 99.334 17.7189C98.8272 17.464 98.2258 17.3359 97.5297 17.3359C96.8336 17.3359 96.2279 17.464 95.7244 17.7189C95.2176 17.9739 94.8034 18.3092 94.4817 18.728C94.1589 19.1469 93.9244 19.6167 93.7738 20.1386C93.6242 20.6638 93.5468 21.1922 93.5468 21.7315C93.5468 22.2707 93.6199 22.7991 93.7738 23.3243Z" fill="#535E6D"/>
<path d="M118.62 27.0664L116.171 18.1028H116.141L113.657 27.0664H112.168L109.05 16.4004H110.51L112.983 25.2728H113.012L115.543 16.4004H116.742L119.342 25.2728H119.371L121.92 16.4004H123.347L120.108 27.0664H118.619H118.62Z" fill="#535E6D"/>
<path d="M147.222 22.7251C149.317 22.7251 149.852 22.5429 149.852 22.5429C150.505 22.3638 151.237 21.6032 151.531 21.1149C151.825 20.6267 151.975 19.8682 151.975 19.2237C151.975 18.3567 151.686 17.6753 151.109 17.1762C150.534 16.6771 149.733 16.4297 148.71 16.4297H143.748V27.0957H145.175V22.7262H147.222V22.7251ZM145.179 17.62H148.637C149.308 17.62 149.796 17.7882 150.097 18.1267C150.397 18.4652 150.548 18.9025 150.548 19.4418C150.548 19.8313 150.482 20.1449 150.345 20.389C150.21 20.6332 150.03 21.0162 149.803 21.1616C149.576 21.307 149.316 21.4025 149.015 21.4535C148.713 21.5045 148.398 21.5294 148.069 21.5294H145.179V17.62Z" fill="#535E6D"/>
<path d="M28.5425 19.633C28.7738 18.9624 29.1181 18.3645 29.584 17.847C30.0466 17.3294 30.6222 16.9138 31.3075 16.6078C31.9972 16.2986 32.7966 16.1445 33.71 16.1445C34.6234 16.1445 35.4228 16.2975 36.1125 16.6078C36.7989 16.9171 37.3745 17.3294 37.8361 17.847C38.2987 18.3645 38.6462 18.9581 38.8775 19.633C39.1088 20.3035 39.2218 21.0066 39.2218 21.7315C39.2218 22.4563 39.1045 23.1594 38.8775 23.8299C38.6462 24.5038 38.2976 25.0984 37.8361 25.6159C37.3734 26.1335 36.7978 26.5447 36.1125 26.8475C35.4228 27.1502 34.6234 27.3032 33.71 27.3032C32.7966 27.3032 31.994 27.1502 31.3075 26.8475C30.6179 26.5447 30.0455 26.1335 29.584 25.6159C29.1213 25.0984 28.7738 24.5048 28.5425 23.8299C28.3112 23.1594 28.1939 22.4595 28.1939 21.7315C28.1939 21.0034 28.3112 20.3035 28.5425 19.633ZM29.9541 23.3243C30.1047 23.8451 30.3392 24.3193 30.662 24.7349C30.9848 25.1537 31.399 25.489 31.9057 25.744C32.4114 25.999 33.0139 26.127 33.71 26.127C34.4061 26.127 35.0118 25.999 35.5143 25.744C36.02 25.489 36.4353 25.1537 36.758 24.7349C37.0808 24.316 37.3153 23.8462 37.466 23.3243C37.6166 22.8035 37.693 22.2707 37.693 21.7315C37.693 21.1922 37.6155 20.6638 37.466 20.1386C37.3153 19.6178 37.0808 19.1436 36.758 18.728C36.4353 18.3092 36.021 17.9739 35.5143 17.7189C35.0086 17.464 34.4061 17.3359 33.71 17.3359C33.0139 17.3359 32.4082 17.464 31.9057 17.7189C31.4001 17.9739 30.9848 18.3092 30.662 18.728C30.3392 19.1469 30.1047 19.6167 29.9541 20.1386C29.8034 20.6638 29.7271 21.1922 29.7271 21.7315C29.7271 22.2707 29.8002 22.7991 29.9541 23.3243Z" fill="#535E6D"/>
<path d="M54.9803 24.367C54.9029 24.4951 54.819 24.6188 54.7275 24.7349C54.4047 25.1537 53.9905 25.489 53.4838 25.744C52.9781 25.999 52.3756 26.127 51.6795 26.127C50.9834 26.127 50.3777 25.999 49.8752 25.744C49.3696 25.489 48.9543 25.1537 48.6315 24.7349C48.3087 24.316 48.0742 23.8462 47.9236 23.3243C47.7729 22.8035 47.6965 22.2707 47.6965 21.7315C47.6965 21.1922 47.7697 20.6638 47.9236 20.1386C48.0742 19.6178 48.3087 19.1436 48.6315 18.728C48.9543 18.3092 49.3685 17.9739 49.8752 17.7189C50.3809 17.464 50.9823 17.3359 51.6795 17.3359C52.3767 17.3359 52.9813 17.464 53.4838 17.7189C53.9905 17.9739 54.4047 18.3092 54.7275 18.728C54.805 18.8268 54.8738 18.9288 54.9395 19.0308C55.3322 18.7649 55.7205 18.4947 56.1132 18.2257C56.0186 18.0944 55.9153 17.9674 55.8055 17.847C55.344 17.3294 54.7673 16.9138 54.082 16.6078C53.3923 16.2986 52.5929 16.1445 51.6795 16.1445C50.7661 16.1445 49.9624 16.2975 49.277 16.6078C48.5874 16.9171 48.015 17.3294 47.5534 17.847C47.0908 18.3645 46.7433 18.9581 46.512 19.633C46.2807 20.3035 46.1634 21.0066 46.1634 21.7315C46.1634 22.4563 46.2807 23.1594 46.512 23.8299C46.7433 24.5038 47.0919 25.0984 47.5534 25.6159C48.0161 26.1335 48.5917 26.5447 49.277 26.8475C49.9667 27.1502 50.7661 27.3032 51.6795 27.3032C52.5929 27.3032 53.3923 27.1502 54.082 26.8475C54.7684 26.5447 55.344 26.1335 55.8055 25.6159C55.9529 25.4521 56.0842 25.2774 56.2047 25.0984C55.783 24.8727 55.3687 24.635 54.976 24.366H54.9793L54.9803 24.367Z" fill="#535E6D"/>
<path d="M148.659 21.8809C148.18 22.0122 147.688 22.1109 147.192 22.1836L150.196 27.0924H152L148.658 21.8819L148.659 21.8809Z" fill="#535E6D"/>
<path d="M137.224 16.4805H130.255V17.6534H137.224V16.4805Z" fill="#535E6D"/>
<path d="M137.227 21.2363H128.751V22.4093H137.227V21.2363Z" fill="#535E6D"/>
<path d="M137.223 25.9355H127.284V27.1085H137.223V25.9355Z" fill="#535E6D"/>
<path d="M137.227 11.748H120.359V12.921H137.227V11.748Z" fill="#535E6D"/>
<path d="M137.223 7H108.911V8.17294H137.223V7Z" fill="#535E6D"/>
<path d="M106.773 7H102.277V8.17294H106.773V7Z" fill="#535E6D"/>
<path d="M100.145 7H97.449V8.17294H100.145V7Z" fill="#535E6D"/>
<path d="M118.191 11.748H115.495V12.921H118.191V11.748Z" fill="#535E6D"/>
</g>
</svg>
