<svg width="107" height="35" viewBox="0 0 107 35" fill="none" xmlns="http://www.w3.org/2000/svg">
<g clip-path="url(#clip0_11810_12713)">
<path d="M98.1592 23.1589C95.8639 23.1589 93.8244 21.4958 93.299 19.1997H106.927C106.927 19.1997 107 18.3678 107 18.0735C107 13.2001 103.035 9.23438 98.1617 9.23438C93.2884 9.23438 89.3235 13.1993 89.3235 18.0735C89.3235 22.9477 93.2661 26.8205 98.1617 26.8205C103.057 26.8205 105.916 23.214 106.629 20.6031H102.475C102.475 20.6031 101.154 23.1589 98.1592 23.1589ZM98.1617 12.8943C100.362 12.8943 102.273 14.3478 102.927 16.514H93.396C94.048 14.3478 95.9594 12.8943 98.1617 12.8943Z" fill="#535E6D"/>
<path d="M46.1564 26.8205C41.2831 26.8205 37.4604 22.8967 37.4604 18.0735C37.4604 13.2503 41.4253 9.23438 46.2986 9.23438C51.1721 9.23438 55.137 13.3555 55.137 18.0266C55.137 20.0169 55.137 26.3824 55.137 26.3824H51.7055V23.5938L51.4557 23.528C50.8514 25.0095 48.6621 26.8205 46.1556 26.8205H46.1564ZM46.2986 12.8943C43.5463 12.8943 41.3061 15.2052 41.3061 18.0464C41.3061 20.8875 43.5455 23.1598 46.2986 23.1598C49.0518 23.1598 51.2913 20.8661 51.2913 18.0464C51.2913 15.2266 49.0518 12.8943 46.2986 12.8943Z" fill="#535E6D"/>
<path d="M64.9287 26.8205C60.0553 26.8205 56.2325 22.8967 56.2325 18.0735C56.2325 13.2503 60.1976 9.23438 65.0709 9.23438C69.9442 9.23438 73.9091 13.3555 73.9091 18.0266C73.9091 20.0169 73.9091 26.3824 73.9091 26.3824H70.4778V23.5938L70.2278 23.528C69.6236 25.0095 67.4344 26.8205 64.9278 26.8205H64.9287ZM65.0709 12.8943C62.3186 12.8943 60.0784 15.2052 60.0784 18.0464C60.0784 20.8875 62.3177 23.1598 65.0709 23.1598C67.8241 23.1598 70.0634 20.8661 70.0634 18.0464C70.0634 15.2266 67.8241 12.8943 65.0709 12.8943Z" fill="#535E6D"/>
<path d="M79.6695 26.3823L72.6266 9.67578H76.4798L81.6418 21.9825L86.8045 9.67578H90.6567L83.6148 26.3823H79.6695Z" fill="#535E6D"/>
<path d="M12.5296 26.7956C14.446 26.7956 15.9996 25.242 15.9996 23.3255C15.9996 21.4091 14.446 19.8555 12.5296 19.8555C10.6132 19.8555 9.05957 21.4091 9.05957 23.3255C9.05957 25.242 10.6132 26.7956 12.5296 26.7956Z" fill="#535E6D"/>
<path d="M21.5989 26.7956C23.5154 26.7956 25.069 25.242 25.069 23.3255C25.069 21.4091 23.5154 19.8555 21.5989 19.8555C19.6825 19.8555 18.1289 21.4091 18.1289 23.3255C18.1289 25.242 19.6825 26.7956 21.5989 26.7956Z" fill="#535E6D"/>
<path d="M17.0583 9C7.6364 9 -0.00246568 16.7844 5.97025e-07 26.384H4.35789C4.35789 19.1898 9.99908 13.3571 17.0583 13.3571C24.1176 13.3571 29.7588 19.1898 29.7588 26.384H34.1167C34.1184 16.7844 26.4795 9 17.0583 9Z" fill="#535E6D"/>
</g>
<defs>
<clipPath id="clip0_11810_12713">
<rect width="107" height="35" fill="white"/>
</clipPath>
</defs>
</svg>
