<svg width="152" height="35" viewBox="0 0 152 35" fill="none" xmlns="http://www.w3.org/2000/svg">
<path d="M44.1853 31.6389H45.0421V26.3816H44.2098L44.1853 31.6389ZM52.5866 30.5297L48.4104 26.3816H47.3676V31.6389H48.1999V27.3287L52.474 31.6389H53.4091V26.3816H52.5866V30.5297ZM58.163 30.9096L55.813 26.3816H54.8338L57.6538 31.6693H58.6966L61.5411 26.3816H60.5619L58.163 30.9096ZM62.9022 31.6389H68.3708V30.9653H63.7344V29.1723H66.5838V28.5443H63.754V27.0704H68.3904V26.3816H62.9022V31.6389ZM73.1834 28.5443C71.5776 28.4886 71.1713 28.1796 71.1713 27.7136C71.1713 27.2477 71.8665 26.8931 72.9582 26.8931C73.8661 26.8501 74.763 27.1131 75.5139 27.6427L75.9055 27.0552C75.0572 26.4559 74.0431 26.1589 73.017 26.2094C71.3769 26.2094 70.2606 26.7918 70.2606 27.7997C70.2606 28.7013 71.0929 29.1976 73.1002 29.2939C74.7599 29.3749 75.1908 29.6636 75.1908 30.1397C75.1908 30.7374 74.3634 31.097 73.11 31.097C72.1679 31.1614 71.2367 30.8578 70.5005 30.2461L70.104 30.8133C70.9372 31.493 71.9821 31.8335 73.0415 31.7706C74.755 31.7706 76.072 31.1527 76.072 30.0587C76.0671 29.1622 75.2936 28.6456 73.159 28.5443H73.1834ZM77.5897 27.1261H80.16V31.6389H81.007V27.1261H83.5871V26.3816H77.5652L77.5897 27.1261ZM88.2921 26.2094C86.2799 26.2094 85.0069 27.4249 85.0069 28.99C85.0069 30.555 86.2799 31.7706 88.2921 31.7706C90.3043 31.7706 91.5527 30.5449 91.5527 28.99C91.5527 27.4351 90.2847 26.2094 88.2676 26.2094H88.2921ZM88.2921 31.0463C86.7645 31.0463 85.9029 30.1194 85.9029 28.99C85.9029 27.8605 86.7645 26.9387 88.2921 26.9387C89.8196 26.9387 90.6861 27.8403 90.6861 28.99C90.6861 30.1397 89.8 31.0463 88.2676 31.0463H88.2921ZM99.5917 28.0732C99.5917 27.1818 98.9405 26.3816 97.6333 26.3816H93.6628V31.6389H94.4951V29.7041H96.5416L98.7251 31.6389H99.9491L97.604 29.6535C98.9797 29.6231 99.5672 28.9292 99.5672 28.0732H99.5917ZM94.4853 29.0305V27.0704H97.604C97.7417 27.0539 97.8812 27.0678 98.0133 27.1113C98.1455 27.1548 98.2672 27.2268 98.3704 27.3225C98.4736 27.4183 98.556 27.5356 98.612 27.6668C98.6681 27.798 98.6967 27.9399 98.6957 28.0834C98.6957 28.6506 98.2845 29.0305 97.5501 29.0305H94.4853ZM104.698 28.524C103.092 28.4683 102.686 28.1593 102.686 27.6934C102.686 27.2274 103.381 26.8729 104.473 26.8729C105.381 26.8298 106.278 27.0929 107.028 27.6225L107.42 27.0349C106.572 26.4356 105.558 26.1387 104.532 26.1891C102.891 26.1891 101.775 26.7716 101.775 27.7795C101.775 28.681 102.608 29.1774 104.615 29.2736C106.275 29.3546 106.705 29.6433 106.705 30.1194C106.705 30.7171 105.878 31.0767 104.625 31.0767C103.697 31.1297 102.784 30.8267 102.059 30.2258L101.658 30.7931C102.492 31.4706 103.536 31.8109 104.595 31.7503C106.309 31.7503 107.626 31.1324 107.626 30.0384C107.582 29.1622 106.808 28.6456 104.674 28.5443L104.698 28.524Z" fill="#535E6D"/>
<path d="M151.771 28.5449H109.931V29.173H151.771V28.5449Z" fill="#535E6D"/>
<path d="M41.84 28.5449H0V29.173H41.84V28.5449Z" fill="#535E6D"/>
<path d="M70.0107 4.35454C69.1978 4.44436 68.3803 4.48326 67.5628 4.47103C67.6803 5.61063 67.7244 8.66475 67.7244 10.1842V11.4859H59.2398V7.85943C59.2398 6.93763 59.2398 5.04336 59.3084 4.35454C58.4954 4.44413 57.6779 4.48303 56.8605 4.47103C56.9731 5.61063 57.022 8.66475 57.022 10.1842V15.4213C57.022 16.9407 56.9731 19.9797 56.8605 21.1294H59.3084C59.2643 20.4659 59.2398 18.597 59.2398 17.7157V13.4308H67.6901V15.4213C67.6901 16.9407 67.646 19.9797 67.5285 21.1294H69.9764C69.9324 20.4659 69.9079 18.597 69.9079 17.7157V7.85943C69.9471 6.93763 69.9715 5.04336 70.0107 4.35454ZM45.7322 13.1421C45.7322 12.1291 46.5987 11.8202 47.5143 11.8202C48.4454 11.8218 49.352 12.1286 50.1042 12.6964L50.8141 10.7971C49.8091 10.2042 48.6711 9.89503 47.5143 9.90057C45.272 9.90057 43.6955 11.3896 43.6955 13.2383C43.6955 16.7837 49.0809 16.1304 49.0809 18.3032C49.0809 19.1794 48.2095 19.6555 47.0443 19.6555C45.9959 19.624 44.9729 19.3153 44.0725 18.759L43.3822 20.6026C44.4912 21.2306 45.7359 21.5582 47.0002 21.5548C49.2425 21.5548 51.1421 20.1823 51.1421 17.9284C51.1568 14.5197 45.7322 14.8945 45.7322 13.1421ZM7.83337 10.1842V14.6869V16.4646C7.83337 18.3336 6.82482 19.458 5.01335 19.458C3.56908 19.458 2.56543 18.8705 2.21782 17.3915L0 18.131C0.514065 20.2886 2.29616 21.5548 4.7294 21.5548C5.45395 21.5928 6.17839 21.4776 6.85851 21.2164C7.53863 20.9551 8.16018 20.5533 8.68525 20.0354C9.62525 19.0883 10.0855 17.9385 10.0855 15.8467V7.85943C10.0855 6.93763 10.0855 5.04336 10.154 4.35454C9.33139 4.44711 8.50409 4.4877 7.6767 4.4761C7.7942 5.61063 7.83337 8.66475 7.83337 10.1842ZM19.7841 18.7945L19.9261 14.1297C19.9947 11.5973 18.7169 9.91577 16.0094 9.91577C14.6844 9.90701 13.3818 10.2693 12.2396 10.9642L12.7292 12.8585C13.5776 12.225 14.5914 11.8718 15.6374 11.8455C17.2383 11.8455 17.9041 12.6508 17.8601 14.2817V14.6362C17.5614 14.6362 17.2628 14.5906 16.9641 14.5906C13.302 14.5906 11.4024 16.0595 11.4024 18.2627C11.4024 20.2025 12.7096 21.4839 14.7218 21.4839C15.3843 21.4965 16.0383 21.328 16.6177 20.9954C17.1971 20.6628 17.6814 20.1779 18.0216 19.5897C18.0229 20.0787 18.2109 20.5474 18.5447 20.8936C18.8785 21.2399 19.331 21.4357 19.8037 21.4384C20.2798 21.427 20.7483 21.3132 21.1795 21.1041L21.3851 19.5846C21.0913 19.6962 20.7823 19.7595 20.4696 19.772C19.9506 19.7517 19.7695 19.4681 19.789 18.8046L19.7841 18.7945ZM17.772 17.0674C17.7694 17.4168 17.7002 17.7622 17.5683 18.0838C17.4364 18.4055 17.2444 18.697 17.0033 18.9417C16.7622 19.1864 16.4768 19.3795 16.1634 19.5098C15.85 19.6401 15.5149 19.7051 15.1771 19.7011C13.914 19.7011 13.4342 19.0123 13.4342 18.1158C13.4342 16.9306 14.3302 15.9582 16.8907 15.9582C17.2138 15.9582 17.5125 15.9835 17.8307 16.0037L17.772 17.0674ZM42.0407 12.6356C42.0407 11.81 42.0848 10.716 42.1533 10.1032C41.4679 10.1741 40.5964 10.2197 39.7739 10.2197C39.8865 11.2326 39.9355 12.8737 39.9355 14.2716V17.0218C39.9355 18.4399 38.217 19.6505 37.1155 19.6505C35.5145 19.6505 34.9662 18.678 34.9662 16.9002V12.6457C34.9662 11.8202 34.9662 10.7261 35.0543 10.1133C34.3689 10.1842 33.5464 10.2298 32.719 10.2298C32.812 11.2428 32.8561 12.8838 32.8561 14.2817V17.3206C32.8561 20.2076 34.1633 21.5599 36.5671 21.5599C37.2605 21.5093 37.9324 21.2897 38.528 20.9191C39.1236 20.5486 39.626 20.0375 39.9942 19.4276L40.2439 21.1345H42.2023C42.0839 19.8263 42.03 18.5128 42.0407 17.1991V12.6356ZM31.1915 13.8309C31.1915 11.3694 30.0948 9.90057 27.8036 9.90057C27.0492 9.94551 26.3168 10.1803 25.6701 10.5846C25.0234 10.9888 24.4818 11.5503 24.0925 12.2203L23.9358 10.1133C23.2513 10.1906 22.5633 10.2294 21.8747 10.2298C21.9628 11.2428 22.0118 12.8838 22.0118 14.2817V17.1231C22.0118 18.5007 21.9628 20.1316 21.8747 21.175H24.21C24.1415 20.5571 24.117 19.5643 24.117 18.7337V14.778C24.117 13.3548 25.7424 11.8202 27.2552 11.8202C28.6505 11.8202 29.0863 12.8838 29.0863 14.2564V17.0978C29.0991 18.4504 29.0452 19.8027 28.9247 21.1497H31.2845C31.2404 20.5317 31.1915 19.539 31.1915 18.7084V13.8309ZM117.99 12.2203L117.78 10.0778C117.097 10.255 116.398 10.3586 115.694 10.3868C115.865 11.5158 115.942 12.6579 115.924 13.8005V17.118C115.924 18.4906 115.9 20.1266 115.787 21.1699H118.122C118.054 20.552 118.029 19.5593 118.029 18.7286V14.6362C118.029 12.98 119.929 12.1494 121.456 12.433L121.731 9.90057C119.997 10.1133 118.876 10.7515 117.99 12.2203ZM135.948 9.90057C132.697 9.90057 130.563 12.6002 130.563 16.0088C130.563 18.9718 132.521 21.5548 135.649 21.5548C138.925 21.5548 141.035 18.8553 141.035 15.4415C141.069 12.4786 139.096 9.90057 135.963 9.90057H135.948ZM135.762 19.6353C133.902 19.6353 132.678 18.2829 132.678 15.6492C132.678 13.5169 133.936 11.8151 135.884 11.8151C137.622 11.8151 138.998 13.2079 138.998 15.7454C138.984 17.9031 137.794 19.6353 135.777 19.6353H135.762ZM124.355 13.1421C124.355 12.1291 125.226 11.8202 126.142 11.8202C127.071 11.8229 127.976 12.1296 128.727 12.6964L129.437 10.7971C128.433 10.2042 127.297 9.89497 126.142 9.90057C123.899 9.90057 122.318 11.3896 122.318 13.2383C122.318 16.7837 127.703 16.1304 127.703 18.3032C127.703 19.1794 126.837 19.6555 125.667 19.6555C124.619 19.6233 123.596 19.3147 122.695 18.759L122.005 20.6026C123.112 21.2371 124.357 21.5716 125.623 21.5751C127.865 21.5751 129.77 20.2025 129.77 17.9487C129.779 14.5197 124.355 14.8945 124.355 13.1421ZM149.417 21.1294H151.771C151.723 20.5115 151.678 19.5188 151.678 18.6881V13.8309C151.678 11.3694 150.582 9.90057 148.291 9.90057C147.536 9.94551 146.804 10.1803 146.157 10.5846C145.51 10.9888 144.969 11.5503 144.579 12.2203L144.428 10.1133C143.743 10.1906 143.055 10.2294 142.367 10.2298C142.455 11.2428 142.504 12.8838 142.504 14.2817V17.1281C142.504 18.5007 142.455 20.1367 142.367 21.18H144.702C144.633 20.5621 144.609 19.5694 144.609 18.7388V14.778C144.609 13.3548 146.234 11.8202 147.747 11.8202C149.142 11.8202 149.578 12.8838 149.578 14.2564V17.1028C149.589 18.4471 149.533 19.791 149.412 21.1294H149.417ZM103.234 6.58308C103.234 5.77777 103.234 4.61791 103.327 4C102.546 4.14703 101.759 4.25017 100.967 4.30896C101.08 5.60889 101.127 6.91401 101.109 8.21904V10.6806C100.392 10.1617 99.5361 9.88889 98.6613 9.90057C95.523 9.90057 93.1877 12.6457 93.1877 16.1304C93.1877 19.1693 95.0628 21.5548 98.0395 21.5548C98.6588 21.5453 99.2687 21.3962 99.8268 21.1181C100.385 20.8399 100.878 20.4394 101.271 19.9442L101.432 21.1294H103.391C103.278 20.0354 103.229 18.5716 103.229 17.194L103.234 6.58308ZM101.129 17.9993C100.872 18.5034 100.487 18.9249 100.015 19.2179C99.5424 19.5109 99.0014 19.664 98.4507 19.6606C96.7764 19.6606 95.3125 18.4045 95.3125 15.867C95.3125 13.6435 96.5756 11.8151 98.7396 11.8151C99.1859 11.805 99.6295 11.8897 100.043 12.0639C100.456 12.2381 100.831 12.4982 101.143 12.8281L101.129 17.9993ZM110.049 9.89551C106.798 9.89551 104.713 12.5951 104.713 16.0037C104.713 18.9667 106.387 21.5498 109.912 21.5498C111.315 21.5365 112.681 21.0826 113.829 20.2481L113.104 18.7742L113.094 18.6881C112.221 19.3048 111.19 19.6381 110.132 19.6454C108.096 19.6454 106.994 18.5311 106.837 16.3279L113.094 16.1557L114.411 16.1152C114.451 15.8454 114.469 15.5726 114.465 15.2997C114.445 12.3165 113.163 9.90057 110.049 9.90057V9.89551ZM106.867 14.6767C107.165 12.9952 108.242 11.7189 109.936 11.7189C111.513 11.7189 112.247 12.6913 112.477 14.5147L106.867 14.6767ZM91.7973 13.8309C91.7973 11.3694 90.6957 9.90057 88.4093 9.90057C87.655 9.94551 86.9226 10.1803 86.2759 10.5846C85.6291 10.9888 85.0876 11.5503 84.6983 12.2203L84.5367 10.1133C83.8522 10.1908 83.1642 10.2297 82.4756 10.2298C82.5686 11.2428 82.6126 12.8838 82.6126 14.2817V17.1281C82.6126 18.5007 82.5686 20.1367 82.4756 21.18H84.8109C84.7423 20.5621 84.7228 19.5694 84.7228 18.7388V14.778C84.7228 13.3548 86.3482 11.8202 87.861 11.8202C89.2563 11.8202 89.692 12.8838 89.692 14.2564V17.1028C89.692 18.4754 89.6431 20.1114 89.5305 21.1547H91.8903C91.8413 20.5368 91.7973 19.5441 91.7973 18.7135V13.8309ZM81.1586 15.2744C81.1586 12.3165 79.8759 9.90057 76.7523 9.90057C73.5015 9.90057 71.4158 12.6002 71.4158 16.0088C71.4158 18.9718 73.0902 21.5548 76.6152 21.5548C78.0263 21.5457 79.4012 21.0916 80.5564 20.2532L79.8318 18.7742L79.8024 18.6881C78.9373 19.3028 77.9144 19.6361 76.8649 19.6454C74.8282 19.6454 73.7267 18.5311 73.57 16.3279L79.8024 16.1557L81.1243 16.1152C81.1613 15.8468 81.1793 15.5759 81.1782 15.3048L81.1586 15.2744ZM73.5798 14.6818C73.8784 13.0003 74.9506 11.7239 76.6495 11.7239C78.226 11.7239 78.9603 12.6964 79.1904 14.5197L73.5798 14.6818Z" fill="#535E6D"/>
</svg>
