<svg width="134" height="35" viewBox="0 0 134 35" fill="none" xmlns="http://www.w3.org/2000/svg">
<g clip-path="url(#clip0_11810_12593)">
<path d="M17.6499 19.6513L15.9959 24.1808C15.947 24.3064 15.947 24.446 15.9959 24.5716L18.8364 32.3674L22.1236 30.469L18.1803 19.6513C18.0896 19.4001 17.7407 19.4001 17.6499 19.6513Z" fill="#535E6D"/>
<path d="M20.9587 12.0302C20.8679 11.779 20.519 11.779 20.4283 12.0302L18.7742 16.5597C18.7253 16.6853 18.7253 16.8249 18.7742 16.9505L23.4293 29.7154L26.7165 27.8171L20.9587 12.0302Z" fill="#535E6D"/>
<path d="M15.1169 2.11469C15.2006 2.11469 15.2774 2.13562 15.3542 2.1775L27.8888 9.41489C28.0353 9.49864 28.126 9.65219 28.126 9.81969V24.2945C28.126 24.462 28.0353 24.6155 27.8888 24.6993L15.3542 31.9436C15.2844 31.9855 15.2006 32.0065 15.1169 32.0065C15.0331 32.0065 14.9564 31.9855 14.8796 31.9436L2.35198 24.7062C2.20542 24.6225 2.11469 24.469 2.11469 24.3015V9.81969C2.11469 9.65219 2.20542 9.49864 2.35198 9.41489L14.8866 2.1775C14.9564 2.13562 15.0401 2.11469 15.1169 2.11469ZM15.1169 0C14.6702 0 14.2235 0.118646 13.8257 0.348958L1.29115 7.58635C0.495521 8.04698 0 8.89844 0 9.81969V24.2945C0 25.2157 0.495521 26.0742 1.29115 26.5348L13.8257 33.7722C14.2235 34.0025 14.6702 34.1211 15.1169 34.1211C15.5635 34.1211 16.0102 34.0025 16.408 33.7722L28.9426 26.5348C29.7452 26.0742 30.2338 25.2227 30.2338 24.2945V9.81969C30.2338 8.89844 29.7382 8.04 28.9426 7.57937L16.415 0.348958C16.0102 0.118646 15.5635 0 15.1169 0Z" fill="#535E6D"/>
<path d="M14.0631 8.78711H10.8876C10.6503 8.78711 10.434 8.93367 10.3572 9.157L3.54553 27.8333L6.83272 29.7316L14.3353 9.16398C14.3981 8.98253 14.2655 8.78711 14.0631 8.78711Z" fill="#535E6D"/>
<path d="M19.6255 8.78711H16.45C16.2127 8.78711 15.9964 8.93367 15.9196 9.157L8.13782 30.4853L11.425 32.3837L19.8907 9.17096C19.9605 8.98253 19.8209 8.78711 19.6255 8.78711Z" fill="#535E6D"/>
<path d="M43.7664 12.6719C44.0804 12.6719 44.3526 12.7347 44.569 12.8673C44.7853 12.9999 45.0017 13.2511 45.2111 13.628L49.3567 21.1516C49.3986 21.2353 49.4055 21.3051 49.3846 21.3609C49.3637 21.4168 49.3009 21.4447 49.2032 21.4447H47.6119C47.4723 21.4447 47.3746 21.3889 47.3258 21.2842L46.4394 19.672H40.556L39.6906 21.2842C39.6347 21.3958 39.537 21.4447 39.4044 21.4447H37.7783C37.6666 21.4447 37.6038 21.4168 37.5828 21.3609C37.5619 21.3051 37.5689 21.2353 37.6108 21.1516L41.7215 13.628C41.9309 13.2511 42.1333 12.9999 42.3357 12.8673C42.5381 12.7347 42.7684 12.6719 43.0336 12.6719H43.7664ZM41.3307 18.2064H45.6438L43.6547 14.5353C43.6198 14.4795 43.5779 14.4446 43.5151 14.4446H43.4384C43.3825 14.4446 43.3337 14.4725 43.2988 14.5353L41.3307 18.2064Z" fill="#535E6D"/>
<path d="M58.4648 12.6719C59.4279 12.6719 60.1119 12.8882 60.5306 13.3209C60.9494 13.7536 61.1587 14.3957 61.1587 15.2472V15.9591C61.1587 16.6779 61.0122 17.2432 60.719 17.662C60.4259 18.0807 59.9513 18.3459 59.2883 18.4646L61.4309 21.1167C61.4728 21.1585 61.4868 21.2214 61.4658 21.3051C61.4519 21.3889 61.3821 21.4307 61.2634 21.4307H59.6512C59.5396 21.4307 59.4698 21.4168 59.4279 21.3958C59.386 21.3679 59.3442 21.326 59.3023 21.2702L57.3202 18.667H53.2723V21.1585C53.2723 21.34 53.1815 21.4307 53.0001 21.4307H51.6461C51.4507 21.4307 51.36 21.34 51.36 21.1585V13.0487C51.36 12.7975 51.4856 12.6719 51.7369 12.6719H58.4648ZM53.2793 17.1455H58.0739C58.4997 17.1455 58.7998 17.0548 58.9743 16.8733C59.1487 16.6919 59.2395 16.4127 59.2395 16.0358V15.5124C59.2395 15.1355 59.1487 14.8564 58.9743 14.6749C58.7998 14.4934 58.4997 14.4027 58.0739 14.4027H53.4398C53.3281 14.4027 53.2793 14.4516 53.2793 14.5563V17.1455Z" fill="#535E6D"/>
<path d="M71.6342 12.6719C72.4927 12.6719 73.1068 12.8464 73.4697 13.1883C73.8327 13.5303 74.0141 14.0468 74.0141 14.7377V15.3379C74.0141 16.0358 73.7489 16.5663 73.2115 16.9292C73.7838 17.2642 74.0769 17.8016 74.0769 18.5414V19.2672C74.0769 19.6022 74.042 19.9023 73.9653 20.1675C73.8885 20.4327 73.7699 20.663 73.5954 20.8515C73.4209 21.0399 73.1976 21.1865 72.9114 21.2842C72.6253 21.3819 72.2763 21.4377 71.8576 21.4377H64.4178C64.1665 21.4377 64.0409 21.3121 64.0409 21.0608V13.0487C64.0409 12.7975 64.1665 12.6719 64.4178 12.6719H71.6342ZM65.9602 16.315H71.0968C71.5156 16.315 71.7948 16.2522 71.9483 16.1266C72.1018 16.0009 72.1716 15.8195 72.1716 15.5752V15.1495C72.1716 14.8913 72.1018 14.7028 71.9553 14.5772C71.8087 14.4585 71.5714 14.3957 71.2504 14.3957H66.1277C66.016 14.3957 65.9671 14.4516 65.9671 14.5563V16.315H65.9602ZM65.9602 17.6829V19.5464C65.9602 19.658 66.016 19.7069 66.1207 19.7069H71.2574C71.5924 19.7069 71.8296 19.6441 71.9692 19.5254C72.1088 19.4068 72.1856 19.2114 72.1856 18.9461V18.4716C72.1856 18.2133 72.1088 18.0179 71.9553 17.8853C71.8017 17.7527 71.5156 17.6829 71.0968 17.6829H65.9602Z" fill="#535E6D"/>
<path d="M78.7461 12.6719C78.9275 12.6719 79.0182 12.7626 79.0182 12.9441V21.1585C79.0182 21.34 78.9275 21.4307 78.7461 21.4307H77.3921C77.1967 21.4307 77.106 21.34 77.106 21.1585V12.951C77.106 12.7696 77.2037 12.6789 77.3921 12.6789L78.7461 12.6719Z" fill="#535E6D"/>
<path d="M91.867 12.6719C92.0625 12.6719 92.1532 12.7626 92.1532 12.9441V14.1724C92.1532 14.3678 92.0555 14.4585 91.867 14.4585H87.9378V21.1585C87.9378 21.34 87.847 21.4307 87.6656 21.4307H86.2977C86.1162 21.4307 86.0255 21.34 86.0255 21.1585V14.4585H82.0962C81.9008 14.4585 81.8101 14.3608 81.8101 14.1724V12.9441C81.8101 12.7626 81.9078 12.6719 82.0962 12.6719H91.867Z" fill="#535E6D"/>
<path d="M101.771 12.6719C102.734 12.6719 103.418 12.8882 103.836 13.3209C104.255 13.7536 104.465 14.3957 104.465 15.2472V15.9591C104.465 16.6779 104.318 17.2432 104.025 17.662C103.732 18.0807 103.257 18.3459 102.594 18.4646L104.737 21.1167C104.779 21.1585 104.793 21.2214 104.772 21.3051C104.758 21.3889 104.688 21.4307 104.569 21.4307H102.957C102.845 21.4307 102.776 21.4168 102.734 21.3958C102.692 21.3679 102.65 21.326 102.608 21.2702L100.626 18.667H96.5781V21.1585C96.5781 21.34 96.4873 21.4307 96.3059 21.4307H94.9519C94.7565 21.4307 94.6658 21.34 94.6658 21.1585V13.0487C94.6658 12.7975 94.7914 12.6719 95.0426 12.6719H101.771ZM96.592 17.1455H101.387C101.812 17.1455 102.113 17.0548 102.287 16.8733C102.461 16.6919 102.552 16.4127 102.552 16.0358V15.5124C102.552 15.1355 102.461 14.8564 102.287 14.6749C102.113 14.4934 101.812 14.4027 101.387 14.4027H96.7525C96.6409 14.4027 96.592 14.4516 96.592 14.5563V17.1455Z" fill="#535E6D"/>
<path d="M108.812 12.6719C108.994 12.6719 109.085 12.7626 109.085 12.9441V17.9411C109.085 18.2761 109.113 18.5553 109.168 18.7717C109.224 18.995 109.315 19.1695 109.441 19.2951C109.566 19.4277 109.734 19.5184 109.95 19.5673C110.166 19.6231 110.432 19.651 110.76 19.651H114.228C114.556 19.651 114.821 19.6231 115.038 19.5673C115.254 19.5115 115.422 19.4207 115.547 19.2951C115.673 19.1625 115.764 18.988 115.813 18.7717C115.861 18.5483 115.889 18.2761 115.889 17.9411V12.9441C115.889 12.7626 115.98 12.6719 116.161 12.6719H117.529C117.711 12.6719 117.802 12.7626 117.802 12.9441V18.1296C117.802 18.7298 117.739 19.2393 117.613 19.665C117.488 20.0837 117.285 20.4257 117.006 20.6909C116.727 20.9561 116.364 21.1446 115.917 21.2632C115.471 21.3819 114.933 21.4377 114.298 21.4377H110.69C110.055 21.4377 109.517 21.3819 109.078 21.2632C108.638 21.1446 108.275 20.9561 107.996 20.6909C107.717 20.4257 107.514 20.0837 107.382 19.665C107.249 19.2462 107.186 18.7298 107.186 18.1296V12.9441C107.186 12.7626 107.284 12.6719 107.472 12.6719H108.812Z" fill="#535E6D"/>
<path d="M123.182 12.6719C123.364 12.6719 123.524 12.6858 123.657 12.7068C123.789 12.7347 123.908 12.7766 124.006 12.8533C124.103 12.9231 124.194 13.0208 124.278 13.1395C124.355 13.2581 124.438 13.4186 124.522 13.621L127.125 19.6301C127.16 19.7069 127.216 19.7418 127.3 19.7418H127.453C127.537 19.7418 127.593 19.7069 127.628 19.6301L130.231 13.621C130.315 13.4186 130.399 13.2581 130.475 13.1395C130.552 13.0208 130.643 12.9231 130.748 12.8533C130.845 12.7835 130.964 12.7347 131.09 12.7068C131.222 12.6789 131.376 12.6719 131.557 12.6719H132.897C133.33 12.6719 133.623 12.7696 133.777 12.965C133.93 13.1604 134 13.4954 134 13.97V21.1585C134 21.34 133.902 21.4307 133.714 21.4307H132.437C132.255 21.4307 132.164 21.34 132.164 21.1585V14.6191C132.164 14.5353 132.13 14.4934 132.067 14.4934H131.955C131.871 14.4934 131.815 14.5283 131.795 14.5911L129.268 20.2024C129.17 20.4257 129.066 20.6211 128.961 20.7747C128.856 20.9282 128.745 21.0539 128.626 21.1585C128.507 21.2563 128.368 21.333 128.214 21.3749C128.061 21.4168 127.879 21.4377 127.67 21.4377H127.07C126.86 21.4377 126.679 21.4168 126.525 21.3749C126.372 21.333 126.232 21.2632 126.113 21.1585C125.995 21.0608 125.876 20.9282 125.778 20.7747C125.674 20.6211 125.569 20.4327 125.471 20.2024L122.945 14.5911C122.917 14.5214 122.868 14.4934 122.784 14.4934H122.673C122.603 14.4934 122.575 14.5353 122.575 14.6191V21.1585C122.575 21.34 122.484 21.4307 122.303 21.4307H121.026C120.83 21.4307 120.74 21.34 120.74 21.1585V13.97C120.74 13.4954 120.816 13.1604 120.963 12.965C121.116 12.7696 121.41 12.6719 121.849 12.6719H123.182Z" fill="#535E6D"/>
</g>
<defs>
<clipPath id="clip0_11810_12593">
<rect width="134" height="35" fill="white"/>
</clipPath>
</defs>
</svg>
