<svg width="470" height="150" viewBox="0 0 470 150" fill="none" xmlns="http://www.w3.org/2000/svg">
<g clip-path="url(#clip0_11822_12569)">
<path d="M357.708 89.8585C351.402 89.8585 345.798 85.2945 344.354 78.9932H381.799C381.799 78.9932 382 76.71 382 75.9023C382 62.5281 371.105 51.6445 357.715 51.6445C344.325 51.6445 333.431 62.5258 333.431 75.9023C333.431 89.279 344.264 99.9074 357.715 99.9074C371.166 99.9074 379.02 90.0097 380.981 82.8444H369.567C369.567 82.8444 365.937 89.8585 357.708 89.8585ZM357.715 61.6888C363.762 61.6888 369.012 65.6776 370.81 71.6225H344.621C346.412 65.6776 351.664 61.6888 357.715 61.6888Z" fill="#9391F7"/>
<path d="M214.822 99.9074C201.432 99.9074 190.928 89.139 190.928 75.9023C190.928 62.6657 201.823 51.6445 215.213 51.6445C228.604 51.6445 239.498 62.9545 239.498 75.7737C239.498 81.2358 239.498 98.7049 239.498 98.7049H230.069V91.0521L229.383 90.8716C227.723 94.9372 221.707 99.9074 214.82 99.9074H214.822ZM215.213 61.6888C207.65 61.6888 201.495 68.0307 201.495 75.8279C201.495 83.625 207.648 89.861 215.213 89.861C222.778 89.861 228.931 83.5663 228.931 75.8279C228.931 68.0894 222.778 61.6888 215.213 61.6888Z" fill="#9391F7"/>
<path d="M266.402 99.9074C253.012 99.9074 242.508 89.139 242.508 75.9023C242.508 62.6657 253.403 51.6445 266.793 51.6445C280.183 51.6445 291.077 62.9545 291.077 75.7737C291.077 81.2358 291.077 98.7049 291.077 98.7049H281.649V91.0521L280.962 90.8716C279.302 94.9372 273.287 99.9074 266.4 99.9074H266.402ZM266.793 61.6888C259.23 61.6888 253.075 68.0307 253.075 75.8279C253.075 83.625 259.228 89.861 266.793 89.861C274.358 89.861 280.511 83.5663 280.511 75.8279C280.511 68.0894 274.358 61.6888 266.793 61.6888Z" fill="#9391F7"/>
<path d="M306.905 98.6997L287.554 52.8508H298.141L312.324 86.6249L326.51 52.8508H337.094L317.745 98.6997H306.905Z" fill="#9391F7"/>
<path d="M122.427 99.8353C127.692 99.8353 131.961 95.5716 131.961 90.312C131.961 85.0527 127.692 80.7891 122.427 80.7891C117.161 80.7891 112.892 85.0527 112.892 90.312C112.892 95.5716 117.161 99.8353 122.427 99.8353Z" fill="#9391F7"/>
<path d="M147.347 99.8353C152.612 99.8353 156.881 95.5716 156.881 90.312C156.881 85.0527 152.612 80.7891 147.347 80.7891C142.081 80.7891 137.812 85.0527 137.812 90.312C137.812 95.5716 142.081 99.8353 147.347 99.8353Z" fill="#9391F7"/>
<path d="M134.871 51C108.982 51 87.9932 72.3632 88 98.708H99.974C99.974 78.9646 115.474 62.9574 134.871 62.9574C154.267 62.9574 169.767 78.9646 169.767 98.708H181.741C181.746 72.3632 160.757 51 134.871 51Z" fill="#9391F7"/>
</g>
<defs>
<clipPath id="clip0_11822_12569">
<rect width="294" height="49" fill="white" transform="translate(88 51)"/>
</clipPath>
</defs>
</svg>
