<svg width="470" height="150" viewBox="0 0 470 150" fill="none" xmlns="http://www.w3.org/2000/svg">
<path d="M71.285 61.2584V98.5842H64V55.2235C64 51.7463 68.0043 49.7641 70.8048 51.855L105.408 77.6891C106.475 78.4855 107.103 79.7331 107.103 81.0576V98.5842H99.8178V82.5603L71.285 61.2584Z" fill="#1AAB9B"/>
<path d="M188.773 57.6299C185.913 57.6299 183.595 59.9294 183.595 62.7661V95.2391H190.318V67.105L199.382 81.7782C200.414 83.4487 202.247 84.4671 204.222 84.4671C206.192 84.4671 208.022 83.4533 209.055 81.7888L218.171 67.105V95.2391H224.893V62.5275C224.893 59.8226 222.684 57.6299 219.957 57.6299C218.206 57.6299 216.585 58.55 215.699 60.0482L204.351 79.2267L193.254 60.1944C192.329 58.6072 190.621 57.6299 188.773 57.6299Z" fill="#1AAB9B"/>
<path fill-rule="evenodd" clip-rule="evenodd" d="M255.942 57.6299C253.721 57.6299 251.725 58.9755 250.907 61.0244L237.242 95.2391H243.752L247.994 85.3934H263.467L267.709 95.2391H274.619L260.98 61.0274C260.162 58.9769 258.166 57.6299 255.942 57.6299ZM255.731 65.3317L261.12 79.2796H250.315L255.731 65.3317Z" fill="#1AAB9B"/>
<path d="M292.81 74.8597L309.207 58.5173C309.777 57.9492 310.552 57.6299 311.36 57.6299C314.069 57.6299 315.422 60.8819 313.503 62.778L300.494 75.6272L319.675 95.2391H310.951L292.81 77.03V95.2391H286.087V60.9647C286.087 59.1229 287.592 57.6299 289.448 57.6299C291.305 57.6299 292.81 59.1229 292.81 60.9647V74.8597Z" fill="#1AAB9B"/>
<path d="M331.57 89.2164C331.57 92.5426 334.288 95.2391 337.641 95.2391H355.074C356.783 95.2391 358.168 93.8645 358.168 92.1689C358.168 90.4733 356.783 89.0988 355.074 89.0988H338.32V78.9355H353.607C355.316 78.9355 356.701 77.561 356.701 75.8654C356.701 74.1698 355.316 72.7953 353.607 72.7953H338.32V63.7702H355.074C356.783 63.7702 358.168 62.3956 358.168 60.7C358.168 59.0044 356.783 57.6299 355.074 57.6299H337.641C334.288 57.6299 331.57 60.3263 331.57 63.6525V89.2164Z" fill="#1AAB9B"/>
<path fill-rule="evenodd" clip-rule="evenodd" d="M402.852 68.4018C402.852 69.6016 402.701 70.7485 402.398 71.8425C402.114 72.9188 401.651 73.9598 401.011 74.9655C400.389 75.9713 399.526 76.8712 398.423 77.6652C397.338 78.4592 396.049 79.0767 394.555 79.5178L406 95.2391H397.25L386.632 80.6559H380.202V95.2391H373.479V63.6525C373.479 60.3263 376.197 57.6299 379.55 57.6299H389.62C390.42 57.6299 391.149 57.6563 391.807 57.7093C392.483 57.7446 393.292 57.8504 394.235 58.0268C395.195 58.1857 396.04 58.4062 396.769 58.6885C397.516 58.9708 398.281 59.3855 399.063 59.9325C399.864 60.4794 400.522 61.1234 401.038 61.8645C401.571 62.588 402.007 63.5143 402.345 64.6436C402.683 65.7552 402.852 67.0079 402.852 68.4018ZM380.202 63.7437V74.5156H386.391C387.459 74.5156 388.401 74.4803 389.219 74.4098C390.037 74.3392 390.882 74.198 391.754 73.9863C392.625 73.7569 393.337 73.4481 393.888 73.06C394.457 72.6718 394.92 72.1336 395.275 71.4455C395.649 70.7573 395.836 69.9457 395.836 69.0106C395.836 65.4993 393.106 63.7437 387.645 63.7437H380.202Z" fill="#1AAB9B"/>
<path d="M148.384 98.5842V61.2584L119.851 82.5603V98.5842H112.566V81.0576C112.566 79.7331 113.194 78.4855 114.261 77.6891L148.864 51.855C151.665 49.7641 155.669 51.7463 155.669 55.2235V98.5842H148.384Z" fill="#1AAB9B"/>
</svg>
