<svg width="470" height="150" viewBox="0 0 470 150" fill="none" xmlns="http://www.w3.org/2000/svg">
<mask id="mask0_11822_12534" style="mask-type:luminance" maskUnits="userSpaceOnUse" x="105" y="22" width="260" height="106">
<path d="M364.7 22H105V128H364.7V22Z" fill="white"/>
</mask>
<g mask="url(#mask0_11822_12534)">
<path d="M201.806 22H143.722V41.2766H201.806V22Z" fill="black"/>
<path d="M201.806 99.1064H143.722V118.383H201.806V99.1064Z" fill="black"/>
<path d="M221.168 79.8296H201.806V99.1062H221.168V79.8296Z" fill="black"/>
<path d="M201.806 60.5537H182.445V79.8302H201.806V60.5537Z" fill="black"/>
<path d="M143.723 79.8296H124.361V99.1062H143.723V79.8296Z" fill="black"/>
<path d="M143.723 41.2769H124.361V60.5533H143.723V41.2769Z" fill="black"/>
<path d="M124.361 60.5537H105V79.8302H124.361V60.5537Z" fill="black"/>
<path d="M237.689 124.059H252.92V128H237.689V124.059Z" fill="black"/>
<path d="M257.073 94.3945H273.078V98.5071H261.547V104.333H272.217V108.445H261.547V118.383H257.073V94.3945Z" fill="black"/>
<path d="M281.404 94.3945H285.879V118.383H281.404V94.3945Z" fill="black"/>
<path d="M295.45 94.3945H311.629V98.5071H299.925V104.333H310.94V108.445H299.925V114.271H311.629V118.383H295.45V94.3945Z" fill="black"/>
<path d="M321.01 94.3945H325.483V114.099H336.735V118.383H321.01V94.3945Z" fill="black"/>
<path d="M344.221 94.3945H352.999C359.517 94.3945 364.7 99.5351 364.7 106.389C364.7 113.243 359.493 118.383 352.999 118.383H344.221V94.3945ZM352.999 114.099C357.128 114.099 360.225 111.058 360.225 106.389C360.225 101.72 357.128 98.6783 352.999 98.6783H348.696V114.099H352.999Z" fill="black"/>
<path d="M256.492 77.1098H256.32C255.868 77.6883 255.287 78.2023 254.62 78.652C253.416 79.4445 251.738 80.1727 249.307 80.1727C242.832 80.1727 237.668 75.0967 237.668 67.9C237.668 60.7035 242.832 55.6272 249.307 55.6272C255.782 55.6272 259.267 60.4035 260.085 64.1516H255.459C254.427 61.9241 252.512 59.8895 249.285 59.8895C245.177 59.8895 242.1 62.9951 242.1 67.9C242.1 72.8048 245.177 75.9104 249.285 75.9104C253.738 75.9104 255.782 72.3335 255.782 70.7913V70.6201H249.802V67.2146H260.235V79.8299H256.815L256.471 77.1098H256.492Z" fill="black"/>
<path d="M268.797 55.9912H279.747C283.984 55.9912 287.276 59.2253 287.276 64.0019C287.276 68.7782 284.029 71.4983 280.263 71.6697L287.965 79.8514H282.329L274.627 71.6697H273.25V79.8514H268.797V55.9912ZM279.575 67.5786C281.274 67.5786 282.824 66.0364 282.824 64.0019C282.824 61.7955 281.274 60.2535 279.575 60.2535H273.25V67.5786H279.575Z" fill="black"/>
<path d="M295.213 55.9912H311.305V60.0824H299.667V65.8866H310.616V69.9776H299.667V75.7604H311.305V79.8514H295.213V55.9912Z" fill="black"/>
<path d="M319.912 55.9912H336.003V60.0824H324.364V65.8866H335.312V69.9776H324.364V75.7604H336.003V79.8514H319.912V55.9912Z" fill="black"/>
<path d="M344.758 55.9912H350.737L359.472 72.5049H360.162V55.9912H364.614V79.8514H358.634L349.9 63.3163H349.211V79.8514H344.758V55.9912Z" fill="black"/>
</g>
</svg>
